LX_20210320_001.mat
nRows=25
nColumns=19

name LX_20210320_001.mat
datacolumns 19
datarows 25
range 0.0000000000 0.2400019535
endheader
time	ground_force_vx	ground_force_vy	ground_force_vz	ground_force_px	ground_force_py	ground_force_pz	1_ground_force_vx	1_ground_force_vy	1_ground_force_vz	1_ground_force_px	1_ground_force_py	1_ground_force_pz	ground_torque_x	ground_torque_y	ground_torque_z	1_ground_torque_x	1_ground_torque_y	1_ground_torque_z	
        0.0000000000	       -2.6961907739	        0.0000000000	       -1.6791480652	       -1.0000000000	       -0.0186500000	        0.1700000000	      -48.5828379355	      532.0052126922	       26.3401281815	        0.0010511035	       -0.0186500000	       -0.0915676053	        2.7395440400	        0.0000000000	        4.7515809246	     -254.1783909859	      -49.0684404655	      531.9297455043	
        0.0100000023	        3.6044286610	        0.0004750531	        1.1048073604	       -0.9999565760	       -0.0186500000	        0.1700000000	      -46.5565651906	      530.2405777865	       31.9234957525	        0.0014135217	       -0.0186500000	       -0.0932087166	        3.0475923414	        0.0000000000	       10.4171575997	     -252.3801930650	      -48.1221437777	      530.3861659761	
        0.0200001247	        1.3773236515	        0.0120414865	       -1.0462336372	       -0.9989061036	       -0.0186500000	        0.1700000000	      -49.3218747072	      524.4061479773	       28.7481569041	       -0.0013933662	       -0.0186500000	       -0.0911539082	        3.2361562418	        0.0000000000	        9.2195681153	     -250.7242681743	      -48.6067586405	      523.0308431494	
        0.0300002471	       -0.9274346265	        0.0728500577	        0.1300385373	       -0.9933829730	       -0.0186500000	        0.1700000000	      -44.0578105497	      519.8052360662	       29.7188821512	       -0.0045525983	       -0.0186500000	       -0.0910993495	        2.7156658369	        0.0000000000	        5.5772863845	     -248.5353478408	      -46.2729581955	      516.8736564363	
        0.0400003294	        4.3827999684	        0.2438492534	       -0.9191220111	       -0.9778353378	       -0.0186500000	        0.1700000000	      -38.8544017301	      508.7907083396	       26.7578491869	       -0.0165437946	       -0.0186500000	       -0.0898521878	        3.3545535804	        0.0000000000	        9.0483745449	     -243.9405629577	      -43.5136785545	      499.8872097788	
        0.0500003717	       -1.5903399709	        0.5889952833	        0.1452598254	       -0.9464987886	       -0.0186500000	        0.1700000000	      -39.3144252990	      504.1868350355	       23.9218150329	       -0.0199754627	       -0.0186500000	       -0.0914318527	        2.8442936627	        0.0000000000	        7.6493751543	     -240.9763917395	      -40.6420914485	      493.6229419553	
        0.0600005740	        1.5173434266	        1.1545280435	        1.3168346472	       -0.8953289686	       -0.0186500000	        0.1700000000	      -36.7873468850	      500.2864158788	       18.8013354036	       -0.0204268630	       -0.0186500000	       -0.0930369895	        2.3731623643	        0.0000000000	        5.8757907546	     -238.3837639956	      -32.1903825883	      489.6132248297	
        0.0700005764	        2.2977616244	        1.9549453132	       -1.4480963857	       -0.8232709084	       -0.0186500000	        0.1700000000	      -37.7690680745	      491.8192025454	       21.4868627363	       -0.0256470776	       -0.0186500000	       -0.0895695557	        2.3090238593	        0.0000000000	        5.9024176646	     -236.0114572214	      -37.1412086030	      478.7379972571	
        0.0800006187	        0.0673947641	        2.9695874722	       -0.1185853532	       -0.7326424882	       -0.0186500000	        0.1700000000	      -30.0540806534	      486.4114769033	       25.3993403924	       -0.0373009084	       -0.0186500000	       -0.0890823681	        2.8361657245	        0.0000000000	        9.4066428046	     -233.5923007651	      -37.1834159173	      467.9160350596	
        0.0900007416	        3.2544669883	        4.1457388302	       -0.5155296514	       -0.6287175677	       -0.0186500000	        0.1700000000	      -28.6071437772	      482.5523405963	       22.5134792017	       -0.0459223794	       -0.0186500000	       -0.0880278752	        2.3566567889	        0.0000000000	        6.0166660320	     -232.2890146058	      -36.2186284525	      460.0621391873	
        0.1000009051	       -3.1537135213	        5.4070789540	        1.2068959530	       -0.5187537920	       -0.0186500000	        0.1700000000	      -30.5630649927	      486.1955865847	       19.2610470992	       -0.0454201293	       -0.0186500000	       -0.0908037304	        1.8901290753	        0.0000000000	        3.2785192782	     -232.7434758728	      -31.2691509808	      463.7522424909	
        0.1100009086	        3.2487490666	        6.6662833415	        0.0576208178	       -0.4107606897	       -0.0186500000	        0.1700000000	      -27.9226904776	      485.2985644478	       16.2027269629	       -0.0494841502	       -0.0186500000	       -0.0896755591	        3.2789022067	        0.0000000000	       13.5126607165	     -232.9072082419	      -28.4069944062	      460.9630680837	
        0.1200010320	        1.8481726158	        7.8373316596	        0.1514727822	       -0.3122811444	       -0.0186500000	        0.1700000000	      -31.6522657122	      486.4910171618	       20.1001752078	       -0.0589355960	       -0.0186500000	       -0.0884697582	        1.8191970856	        0.0000000000	        4.9788763674	     -234.0081246310	      -32.7098351707	      457.4413147362	
        0.1300010354	       -3.1768802877	        8.8461415209	        0.0340602550	       -0.2293942038	       -0.0186500000	        0.1700000000	      -25.4038887976	      486.9290975543	       18.1565322243	       -0.0623166211	       -0.0186500000	       -0.0882943689	        2.1039860558	        0.0000000000	        1.0858587575	     -234.3336038880	      -30.1972628360	      456.3005485413	
        0.1400011589	        5.0195650929	        9.6380146265	       -0.9456896634	       -0.1660642129	       -0.0186500000	        0.1700000000	      -27.3332129957	      487.3996600149	       16.2021999870	       -0.0738253521	       -0.0186500000	       -0.0890557335	        3.0411403307	        0.0000000000	        8.3941480601	     -234.2183767686	      -27.2344714997	      451.1022221204	
        0.1500013224	       -1.0615144180	       10.1848085378	        0.4708147744	       -0.1238789461	       -0.0186500000	        0.1700000000	      -24.0591615839	      488.9472714289	       16.7026490738	       -0.0862225524	       -0.0186500000	       -0.0898559447	        2.6223132273	        0.0000000000	        7.4465050156	     -234.5636857567	      -27.2796845943	      446.5215456298	
        0.1600013258	        0.8720437082	       10.4846467909	       -0.2145269163	       -0.1021502168	       -0.0186500000	        0.1700000000	      -19.5105554123	      489.6624684522	       22.3078085852	       -0.0929608193	       -0.0186500000	       -0.0894496399	        2.2027946128	        0.0000000000	        5.3427000218	     -235.0219279423	      -30.4237360377	      443.9430046976	
        0.1700014493	        2.1978874106	       10.5570895030	        0.9493446323	       -0.0983012429	       -0.0186500000	        0.1700000000	      -20.0434845237	      487.5703609602	       24.7172395056	       -0.1011734899	       -0.0186500000	       -0.0878047938	        1.9863937791	        0.0000000000	        3.8967673907	     -234.7827809218	      -34.0667242603	      438.0326877179	
        0.1800014928	       -1.9881680587	       10.4387557680	       -1.5398090707	       -0.1084380156	       -0.0186500000	        0.1700000000	      -14.4409771860	      488.2849607371	       21.3089559505	       -0.1057737981	       -0.0186500000	       -0.0885312148	        3.6654286337	        0.0000000000	        6.7777480100	     -234.8236345466	      -27.3036416312	      436.5121593156	
        0.1900015762	        4.0102693041	       10.1783765421	        0.0825275137	       -0.1279955892	       -0.0186500000	        0.1700000000	      -12.8250787669	      491.6576182831	       15.7028806102	       -0.1170521405	       -0.0186500000	       -0.0908088339	        3.1005462648	        0.0000000000	        6.6664427522	     -235.4111764401	      -19.5340894045	      434.0054584726	
        0.2000016597	       -3.5211959787	        9.8310898824	       -0.6616403077	       -0.1523606632	       -0.0186500000	        0.1700000000	      -11.6621669631	      493.0490849395	       15.1629823329	       -0.1250670747	       -0.0186500000	       -0.0909975262	        2.3881286614	        0.0000000000	        4.5317259005	     -235.9928621889	      -19.6182063955	      431.2986724589	
        0.2100017031	        3.1942669790	        9.4510493579	        0.2011843803	       -0.1773938127	       -0.0186500000	        0.1700000000	       -8.8772601589	      497.2290451913	       20.5661163597	       -0.1322388423	       -0.0186500000	       -0.0910278904	        2.7816813765	        0.0000000000	       11.5115609475	     -237.8985170985	      -24.3488950027	      431.4301527069	
        0.2200017865	        1.0500564817	        9.0863639946	        0.3502229047	       -0.1998026839	       -0.0186500000	        0.1700000000	       -6.9218514654	      497.5891499485	       23.6988271574	       -0.1452517548	       -0.0186500000	       -0.0886440058	        1.6564090198	        0.0000000000	        2.9956344408	     -239.2104064046	      -26.2553950902	      425.2955139480	
        0.2300019101	       -3.5251715117	        8.7741462710	       -2.6895201045	       -0.2173463229	       -0.0186500000	        0.1700000000	       -3.9579398329	      500.7170177245	       21.5758621627	       -0.1544353389	       -0.0186500000	       -0.0909995171	        2.1966071815	        0.0000000000	        2.3533822700	     -239.5678868074	      -21.4936777614	      423.4136816719	
        0.2400019535	        6.8093248390	        8.5361458099	        1.1642558533	       -0.2288764886	       -0.0186500000	        0.1700000000	       -1.6623839342	      501.2238081928	       16.5549052163	       -0.1634986804	       -0.0186500000	       -0.0924661972	        3.4583985269	        0.0000000000	       12.5192648495	     -239.1506243650	      -16.6472315959	      419.3328870980	
